# xmcd
#
# Track frame offsets:
#	150
#	8950
#	18170
#	33762
#	49157
#	65395
#	76577
#	89990
#	101265
#	114292
#	130380
#	144317
#	154137
#	166720
#	176612
#	192535
#
# Disc length: 2756 seconds
#
# Revision: 1
# Processed by: cddbd v1.4PL0 Copyright (c) Steve Scherf et al.
# Submitted via: audiograbber 1.81.03
#
DISCID=c30ac210
DTITLE=Cesar et les Romains - Les 16 Plus Grands Succes
DYEAR=1900
DGENRE=
TTITLE0=Splish Splash
TTITLE1=Toi et Moi
TTITLE2=Je sais
TTITLE3=Le Jour du dernier jour
TTITLE4=C'est la fin
TTITLE5=Pour Toi
TTITLE6=Laisse moi partir
TTITLE7=Que faut-il faire pour oublier
TTITLE8=Ce qu'elle voulait
TTITLE9=Par amour , par pitie
TTITLE10=Toi, Toi, Toi
TTITLE11=Alors c'etait lui
TTITLE12=J'ai tant d'amour
TTITLE13=J'ai oublie de prier
TTITLE14=Mammy Blue
TTITLE15=Dalila
EXTD=
EXTT0=
EXTT1=
EXTT2=
EXTT3=
EXTT4=
EXTT5=
EXTT6=
EXTT7=
EXTT8=
EXTT9=
EXTT10=
EXTT11=
EXTT12=
EXTT13=
EXTT14=
EXTT15=
PLAYORDER=
